<mxfile host="app.diagrams.net" agent="Mozilla/5.0 (Macintosh; Intel Mac OS X 10_15_7) AppleWebKit/537.36 (KHTML, like Gecko) Chrome/131.0.0.0 Safari/537.36" version="26.0.11">
  <diagram id="R2lEEEUBdFMjLlhIrx00" name="Page-1">
    <mxGraphModel dx="2049" dy="1079" grid="1" gridSize="10" guides="1" tooltips="1" connect="1" arrows="1" fold="1" page="1" pageScale="1" pageWidth="3300" pageHeight="4681" math="0" shadow="0" extFonts="Permanent Marker^https://fonts.googleapis.com/css?family=Permanent+Marker">
      <root>
        <mxCell id="0" />
        <mxCell id="1" parent="0" />
        <mxCell id="KQwhFQvOAtlfq9HruIm9-1" value="Person" style="rounded=0;whiteSpace=wrap;html=1;" vertex="1" parent="1">
          <mxGeometry x="1365" y="670" width="85" height="40" as="geometry" />
        </mxCell>
        <mxCell id="KQwhFQvOAtlfq9HruIm9-2" value="PersonID" style="ellipse;whiteSpace=wrap;html=1;" vertex="1" parent="1">
          <mxGeometry x="1230" y="600" width="60" height="30" as="geometry" />
        </mxCell>
        <mxCell id="KQwhFQvOAtlfq9HruIm9-3" value="" style="endArrow=none;html=1;rounded=0;exitX=0.5;exitY=1;exitDx=0;exitDy=0;entryX=0.135;entryY=-0.075;entryDx=0;entryDy=0;entryPerimeter=0;" edge="1" parent="1" source="KQwhFQvOAtlfq9HruIm9-2" target="KQwhFQvOAtlfq9HruIm9-1">
          <mxGeometry width="50" height="50" relative="1" as="geometry">
            <mxPoint x="1390" y="720" as="sourcePoint" />
            <mxPoint x="1440" y="670" as="targetPoint" />
          </mxGeometry>
        </mxCell>
        <mxCell id="KQwhFQvOAtlfq9HruIm9-4" value="name" style="ellipse;whiteSpace=wrap;html=1;" vertex="1" parent="1">
          <mxGeometry x="1325" y="600" width="65" height="30" as="geometry" />
        </mxCell>
        <mxCell id="KQwhFQvOAtlfq9HruIm9-5" value="" style="endArrow=none;html=1;rounded=0;entryX=0.262;entryY=1.017;entryDx=0;entryDy=0;entryPerimeter=0;exitX=0.712;exitY=0;exitDx=0;exitDy=0;exitPerimeter=0;" edge="1" parent="1" source="KQwhFQvOAtlfq9HruIm9-1" target="KQwhFQvOAtlfq9HruIm9-4">
          <mxGeometry width="50" height="50" relative="1" as="geometry">
            <mxPoint x="1390" y="720" as="sourcePoint" />
            <mxPoint x="1440" y="670" as="targetPoint" />
          </mxGeometry>
        </mxCell>
        <mxCell id="KQwhFQvOAtlfq9HruIm9-6" value="fname" style="ellipse;whiteSpace=wrap;html=1;" vertex="1" parent="1">
          <mxGeometry x="1310" y="530" width="70" height="30" as="geometry" />
        </mxCell>
        <mxCell id="KQwhFQvOAtlfq9HruIm9-8" value="lname" style="ellipse;whiteSpace=wrap;html=1;" vertex="1" parent="1">
          <mxGeometry x="1400" y="530" width="70" height="30" as="geometry" />
        </mxCell>
        <mxCell id="KQwhFQvOAtlfq9HruIm9-9" value="" style="endArrow=none;html=1;rounded=0;entryX=0.45;entryY=0.933;entryDx=0;entryDy=0;entryPerimeter=0;exitX=0.354;exitY=-0.033;exitDx=0;exitDy=0;exitPerimeter=0;" edge="1" parent="1" source="KQwhFQvOAtlfq9HruIm9-4" target="KQwhFQvOAtlfq9HruIm9-6">
          <mxGeometry width="50" height="50" relative="1" as="geometry">
            <mxPoint x="1290" y="650" as="sourcePoint" />
            <mxPoint x="1340" y="600" as="targetPoint" />
          </mxGeometry>
        </mxCell>
        <mxCell id="KQwhFQvOAtlfq9HruIm9-10" value="" style="endArrow=none;html=1;rounded=0;" edge="1" parent="1" source="KQwhFQvOAtlfq9HruIm9-4" target="KQwhFQvOAtlfq9HruIm9-8">
          <mxGeometry width="50" height="50" relative="1" as="geometry">
            <mxPoint x="1290" y="650" as="sourcePoint" />
            <mxPoint x="1340" y="600" as="targetPoint" />
          </mxGeometry>
        </mxCell>
        <mxCell id="KQwhFQvOAtlfq9HruIm9-11" value="address" style="ellipse;whiteSpace=wrap;html=1;" vertex="1" parent="1">
          <mxGeometry x="1620" y="540" width="80" height="30" as="geometry" />
        </mxCell>
        <mxCell id="KQwhFQvOAtlfq9HruIm9-12" value="" style="endArrow=none;html=1;rounded=0;exitX=1;exitY=0.75;exitDx=0;exitDy=0;" edge="1" parent="1" source="KQwhFQvOAtlfq9HruIm9-1" target="KQwhFQvOAtlfq9HruIm9-11">
          <mxGeometry width="50" height="50" relative="1" as="geometry">
            <mxPoint x="1400" y="680" as="sourcePoint" />
            <mxPoint x="1460" y="600" as="targetPoint" />
          </mxGeometry>
        </mxCell>
        <mxCell id="KQwhFQvOAtlfq9HruIm9-13" value="SSN" style="ellipse;whiteSpace=wrap;html=1;" vertex="1" parent="1">
          <mxGeometry x="1500" y="560" width="100" height="30" as="geometry" />
        </mxCell>
        <mxCell id="KQwhFQvOAtlfq9HruIm9-14" value="" style="endArrow=none;html=1;rounded=0;exitX=1;exitY=0.5;exitDx=0;exitDy=0;" edge="1" parent="1" source="KQwhFQvOAtlfq9HruIm9-1" target="KQwhFQvOAtlfq9HruIm9-13">
          <mxGeometry width="50" height="50" relative="1" as="geometry">
            <mxPoint x="1430" y="690" as="sourcePoint" />
            <mxPoint x="1460" y="600" as="targetPoint" />
          </mxGeometry>
        </mxCell>
        <mxCell id="KQwhFQvOAtlfq9HruIm9-15" value="phone#" style="ellipse;whiteSpace=wrap;html=1;" vertex="1" parent="1">
          <mxGeometry x="1420" y="580" width="70" height="30" as="geometry" />
        </mxCell>
        <mxCell id="KQwhFQvOAtlfq9HruIm9-16" value="" style="endArrow=none;html=1;rounded=0;" edge="1" parent="1" source="KQwhFQvOAtlfq9HruIm9-15">
          <mxGeometry width="50" height="50" relative="1" as="geometry">
            <mxPoint x="1420" y="710" as="sourcePoint" />
            <mxPoint x="1450" y="670" as="targetPoint" />
          </mxGeometry>
        </mxCell>
        <mxCell id="KQwhFQvOAtlfq9HruIm9-17" value="o" style="ellipse;whiteSpace=wrap;html=1;aspect=fixed;" vertex="1" parent="1">
          <mxGeometry x="1395" y="760" width="25" height="25" as="geometry" />
        </mxCell>
        <mxCell id="KQwhFQvOAtlfq9HruIm9-18" value="" style="endArrow=none;html=1;rounded=0;entryX=0.5;entryY=1;entryDx=0;entryDy=0;exitX=0.5;exitY=0;exitDx=0;exitDy=0;" edge="1" parent="1" source="KQwhFQvOAtlfq9HruIm9-17" target="KQwhFQvOAtlfq9HruIm9-1">
          <mxGeometry width="50" height="50" relative="1" as="geometry">
            <mxPoint x="1450" y="700" as="sourcePoint" />
            <mxPoint x="1500" y="650" as="targetPoint" />
          </mxGeometry>
        </mxCell>
        <mxCell id="KQwhFQvOAtlfq9HruIm9-26" value="t" style="edgeLabel;html=1;align=center;verticalAlign=middle;resizable=0;points=[];" vertex="1" connectable="0" parent="KQwhFQvOAtlfq9HruIm9-18">
          <mxGeometry x="0.6554" y="-4" relative="1" as="geometry">
            <mxPoint as="offset" />
          </mxGeometry>
        </mxCell>
        <mxCell id="KQwhFQvOAtlfq9HruIm9-113" style="edgeStyle=none;shape=connector;rounded=0;orthogonalLoop=1;jettySize=auto;html=1;exitX=0;exitY=1;exitDx=0;exitDy=0;entryX=1;entryY=0;entryDx=0;entryDy=0;strokeColor=default;align=center;verticalAlign=middle;fontFamily=Helvetica;fontSize=11;fontColor=default;labelBackgroundColor=default;endArrow=none;" edge="1" parent="1" source="KQwhFQvOAtlfq9HruIm9-19" target="KQwhFQvOAtlfq9HruIm9-112">
          <mxGeometry relative="1" as="geometry" />
        </mxCell>
        <mxCell id="KQwhFQvOAtlfq9HruIm9-125" value="0..n" style="edgeLabel;html=1;align=center;verticalAlign=middle;resizable=0;points=[];fontFamily=Helvetica;fontSize=11;fontColor=default;labelBackgroundColor=default;" vertex="1" connectable="0" parent="KQwhFQvOAtlfq9HruIm9-113">
          <mxGeometry x="-0.8117" y="-1" relative="1" as="geometry">
            <mxPoint as="offset" />
          </mxGeometry>
        </mxCell>
        <mxCell id="KQwhFQvOAtlfq9HruIm9-132" style="edgeStyle=none;shape=connector;rounded=0;orthogonalLoop=1;jettySize=auto;html=1;exitX=1;exitY=1;exitDx=0;exitDy=0;strokeColor=default;align=center;verticalAlign=middle;fontFamily=Helvetica;fontSize=11;fontColor=default;labelBackgroundColor=default;endArrow=none;" edge="1" parent="1" source="KQwhFQvOAtlfq9HruIm9-19" target="KQwhFQvOAtlfq9HruIm9-131">
          <mxGeometry relative="1" as="geometry" />
        </mxCell>
        <mxCell id="KQwhFQvOAtlfq9HruIm9-135" value="4..n" style="edgeLabel;html=1;align=center;verticalAlign=middle;resizable=0;points=[];fontFamily=Helvetica;fontSize=11;fontColor=default;labelBackgroundColor=default;" vertex="1" connectable="0" parent="KQwhFQvOAtlfq9HruIm9-132">
          <mxGeometry x="-0.8062" y="-1" relative="1" as="geometry">
            <mxPoint x="1" as="offset" />
          </mxGeometry>
        </mxCell>
        <mxCell id="KQwhFQvOAtlfq9HruIm9-19" value="Hiker" style="rounded=0;whiteSpace=wrap;html=1;fillColor=light-dark(#00FF00,var(--ge-dark-color, #121212));" vertex="1" parent="1">
          <mxGeometry x="1025" y="775" width="100" height="40" as="geometry" />
        </mxCell>
        <mxCell id="KQwhFQvOAtlfq9HruIm9-20" value="Guide" style="rounded=0;whiteSpace=wrap;html=1;fillColor=light-dark(#00FF80,var(--ge-dark-color, #121212));" vertex="1" parent="1">
          <mxGeometry x="1460" y="850" width="110" height="40" as="geometry" />
        </mxCell>
        <mxCell id="KQwhFQvOAtlfq9HruIm9-21" value="" style="endArrow=none;html=1;rounded=0;exitX=0.5;exitY=0;exitDx=0;exitDy=0;entryX=0;entryY=0.5;entryDx=0;entryDy=0;" edge="1" parent="1" source="KQwhFQvOAtlfq9HruIm9-19" target="KQwhFQvOAtlfq9HruIm9-17">
          <mxGeometry width="50" height="50" relative="1" as="geometry">
            <mxPoint x="1140" y="745" as="sourcePoint" />
            <mxPoint x="1158.6611652351799" y="706.3388347648201" as="targetPoint" />
            <Array as="points">
              <mxPoint x="1110" y="745" />
            </Array>
          </mxGeometry>
        </mxCell>
        <mxCell id="KQwhFQvOAtlfq9HruIm9-22" value="" style="endArrow=none;html=1;rounded=0;entryX=0.182;entryY=0;entryDx=0;entryDy=0;entryPerimeter=0;exitX=1;exitY=1;exitDx=0;exitDy=0;" edge="1" parent="1" source="KQwhFQvOAtlfq9HruIm9-17" target="KQwhFQvOAtlfq9HruIm9-20">
          <mxGeometry width="50" height="50" relative="1" as="geometry">
            <mxPoint x="1430" y="810" as="sourcePoint" />
            <mxPoint x="1430" y="770" as="targetPoint" />
          </mxGeometry>
        </mxCell>
        <mxCell id="KQwhFQvOAtlfq9HruIm9-24" value="" style="endArrow=none;html=1;rounded=0;" edge="1" parent="1">
          <mxGeometry width="50" height="50" relative="1" as="geometry">
            <mxPoint x="1100" y="735" as="sourcePoint" />
            <mxPoint x="1120" y="755" as="targetPoint" />
            <Array as="points">
              <mxPoint x="1100" y="755" />
            </Array>
          </mxGeometry>
        </mxCell>
        <mxCell id="KQwhFQvOAtlfq9HruIm9-25" value="" style="endArrow=none;html=1;rounded=0;" edge="1" parent="1">
          <mxGeometry width="50" height="50" relative="1" as="geometry">
            <mxPoint x="1460" y="800" as="sourcePoint" />
            <mxPoint x="1430" y="820" as="targetPoint" />
            <Array as="points">
              <mxPoint x="1450" y="820" />
            </Array>
          </mxGeometry>
        </mxCell>
        <mxCell id="KQwhFQvOAtlfq9HruIm9-27" value="specialization" style="ellipse;whiteSpace=wrap;html=1;" vertex="1" parent="1">
          <mxGeometry x="1570" y="780" width="100" height="32" as="geometry" />
        </mxCell>
        <mxCell id="KQwhFQvOAtlfq9HruIm9-28" value="" style="endArrow=none;html=1;rounded=0;entryX=0.218;entryY=0.894;entryDx=0;entryDy=0;entryPerimeter=0;" edge="1" parent="1" source="KQwhFQvOAtlfq9HruIm9-20" target="KQwhFQvOAtlfq9HruIm9-27">
          <mxGeometry width="50" height="50" relative="1" as="geometry">
            <mxPoint x="1500" y="860" as="sourcePoint" />
            <mxPoint x="1550" y="810" as="targetPoint" />
          </mxGeometry>
        </mxCell>
        <mxCell id="KQwhFQvOAtlfq9HruIm9-29" value="highestPeak" style="ellipse;whiteSpace=wrap;html=1;" vertex="1" parent="1">
          <mxGeometry x="889.9999999999999" y="685" width="90" height="50" as="geometry" />
        </mxCell>
        <mxCell id="KQwhFQvOAtlfq9HruIm9-30" value="" style="endArrow=none;html=1;rounded=0;" edge="1" parent="1" source="KQwhFQvOAtlfq9HruIm9-19" target="KQwhFQvOAtlfq9HruIm9-29">
          <mxGeometry width="50" height="50" relative="1" as="geometry">
            <mxPoint x="1050" y="785" as="sourcePoint" />
            <mxPoint x="1100" y="735" as="targetPoint" />
          </mxGeometry>
        </mxCell>
        <mxCell id="KQwhFQvOAtlfq9HruIm9-31" value="Works for" style="rhombus;whiteSpace=wrap;html=1;" vertex="1" parent="1">
          <mxGeometry x="1660" y="850" width="90" height="40" as="geometry" />
        </mxCell>
        <mxCell id="KQwhFQvOAtlfq9HruIm9-32" value="" style="endArrow=none;html=1;rounded=0;" edge="1" parent="1" source="KQwhFQvOAtlfq9HruIm9-20" target="KQwhFQvOAtlfq9HruIm9-31">
          <mxGeometry width="50" height="50" relative="1" as="geometry">
            <mxPoint x="1590" y="860" as="sourcePoint" />
            <mxPoint x="1640" y="810" as="targetPoint" />
          </mxGeometry>
        </mxCell>
        <mxCell id="KQwhFQvOAtlfq9HruIm9-35" value="0..1" style="edgeLabel;html=1;align=center;verticalAlign=middle;resizable=0;points=[];" vertex="1" connectable="0" parent="KQwhFQvOAtlfq9HruIm9-32">
          <mxGeometry x="-0.7966" y="1" relative="1" as="geometry">
            <mxPoint x="11" y="1" as="offset" />
          </mxGeometry>
        </mxCell>
        <mxCell id="KQwhFQvOAtlfq9HruIm9-33" value="Company" style="rounded=0;whiteSpace=wrap;html=1;" vertex="1" parent="1">
          <mxGeometry x="1850" y="850" width="100" height="40" as="geometry" />
        </mxCell>
        <mxCell id="KQwhFQvOAtlfq9HruIm9-34" value="" style="endArrow=none;html=1;rounded=0;exitX=1;exitY=0.5;exitDx=0;exitDy=0;" edge="1" parent="1" source="KQwhFQvOAtlfq9HruIm9-31" target="KQwhFQvOAtlfq9HruIm9-33">
          <mxGeometry width="50" height="50" relative="1" as="geometry">
            <mxPoint x="1760" y="850" as="sourcePoint" />
            <mxPoint x="1770" y="790" as="targetPoint" />
          </mxGeometry>
        </mxCell>
        <mxCell id="KQwhFQvOAtlfq9HruIm9-36" value="1..n" style="edgeLabel;html=1;align=center;verticalAlign=middle;resizable=0;points=[];" vertex="1" connectable="0" parent="KQwhFQvOAtlfq9HruIm9-34">
          <mxGeometry x="0.6138" y="1" relative="1" as="geometry">
            <mxPoint as="offset" />
          </mxGeometry>
        </mxCell>
        <mxCell id="KQwhFQvOAtlfq9HruIm9-37" value="start_date" style="ellipse;whiteSpace=wrap;html=1;" vertex="1" parent="1">
          <mxGeometry x="1630" y="730" width="90" height="30" as="geometry" />
        </mxCell>
        <mxCell id="KQwhFQvOAtlfq9HruIm9-38" value="" style="endArrow=none;html=1;rounded=0;entryX=0.419;entryY=1.023;entryDx=0;entryDy=0;entryPerimeter=0;" edge="1" parent="1" source="KQwhFQvOAtlfq9HruIm9-31" target="KQwhFQvOAtlfq9HruIm9-37">
          <mxGeometry width="50" height="50" relative="1" as="geometry">
            <mxPoint x="1670" y="850" as="sourcePoint" />
            <mxPoint x="1720" y="800" as="targetPoint" />
          </mxGeometry>
        </mxCell>
        <mxCell id="KQwhFQvOAtlfq9HruIm9-39" value="end_date" style="ellipse;whiteSpace=wrap;html=1;" vertex="1" parent="1">
          <mxGeometry x="1740" y="725" width="90" height="40" as="geometry" />
        </mxCell>
        <mxCell id="KQwhFQvOAtlfq9HruIm9-40" value="" style="endArrow=none;html=1;rounded=0;" edge="1" parent="1" source="KQwhFQvOAtlfq9HruIm9-31" target="KQwhFQvOAtlfq9HruIm9-39">
          <mxGeometry width="50" height="50" relative="1" as="geometry">
            <mxPoint x="1670" y="850" as="sourcePoint" />
            <mxPoint x="1720" y="800" as="targetPoint" />
          </mxGeometry>
        </mxCell>
        <mxCell id="KQwhFQvOAtlfq9HruIm9-41" value="CID" style="ellipse;whiteSpace=wrap;html=1;" vertex="1" parent="1">
          <mxGeometry x="1840" y="725" width="70" height="35" as="geometry" />
        </mxCell>
        <mxCell id="KQwhFQvOAtlfq9HruIm9-42" value="" style="endArrow=none;html=1;rounded=0;entryX=0.433;entryY=1.026;entryDx=0;entryDy=0;entryPerimeter=0;" edge="1" parent="1" source="KQwhFQvOAtlfq9HruIm9-33" target="KQwhFQvOAtlfq9HruIm9-41">
          <mxGeometry width="50" height="50" relative="1" as="geometry">
            <mxPoint x="1820" y="830" as="sourcePoint" />
            <mxPoint x="1870" y="780" as="targetPoint" />
          </mxGeometry>
        </mxCell>
        <mxCell id="KQwhFQvOAtlfq9HruIm9-43" value="company_name" style="ellipse;whiteSpace=wrap;html=1;" vertex="1" parent="1">
          <mxGeometry x="1930" y="720" width="90" height="45" as="geometry" />
        </mxCell>
        <mxCell id="KQwhFQvOAtlfq9HruIm9-44" value="" style="endArrow=none;html=1;rounded=0;" edge="1" parent="1" source="KQwhFQvOAtlfq9HruIm9-33" target="KQwhFQvOAtlfq9HruIm9-43">
          <mxGeometry width="50" height="50" relative="1" as="geometry">
            <mxPoint x="1910" y="750" as="sourcePoint" />
            <mxPoint x="1960" y="700" as="targetPoint" />
          </mxGeometry>
        </mxCell>
        <mxCell id="KQwhFQvOAtlfq9HruIm9-45" value="Certification" style="rounded=0;whiteSpace=wrap;html=1;" vertex="1" parent="1">
          <mxGeometry x="1610" y="1020" width="110" height="40" as="geometry" />
        </mxCell>
        <mxCell id="KQwhFQvOAtlfq9HruIm9-46" value="has" style="rhombus;whiteSpace=wrap;html=1;" vertex="1" parent="1">
          <mxGeometry x="1610" y="925" width="90" height="40" as="geometry" />
        </mxCell>
        <mxCell id="KQwhFQvOAtlfq9HruIm9-47" value="" style="endArrow=none;html=1;rounded=0;entryX=0.5;entryY=1;entryDx=0;entryDy=0;" edge="1" parent="1" source="KQwhFQvOAtlfq9HruIm9-46" target="KQwhFQvOAtlfq9HruIm9-20">
          <mxGeometry width="50" height="50" relative="1" as="geometry">
            <mxPoint x="1550" y="900" as="sourcePoint" />
            <mxPoint x="1600" y="850" as="targetPoint" />
          </mxGeometry>
        </mxCell>
        <mxCell id="KQwhFQvOAtlfq9HruIm9-48" value="" style="endArrow=none;html=1;rounded=0;entryX=0.5;entryY=1;entryDx=0;entryDy=0;" edge="1" parent="1" source="KQwhFQvOAtlfq9HruIm9-45" target="KQwhFQvOAtlfq9HruIm9-46">
          <mxGeometry width="50" height="50" relative="1" as="geometry">
            <mxPoint x="1690" y="865" as="sourcePoint" />
            <mxPoint x="1740" y="815" as="targetPoint" />
          </mxGeometry>
        </mxCell>
        <mxCell id="KQwhFQvOAtlfq9HruIm9-49" value="certification_name" style="ellipse;whiteSpace=wrap;html=1;" vertex="1" parent="1">
          <mxGeometry x="1760" y="965" width="105" height="50" as="geometry" />
        </mxCell>
        <mxCell id="KQwhFQvOAtlfq9HruIm9-50" value="" style="endArrow=none;html=1;rounded=0;exitX=1;exitY=0.25;exitDx=0;exitDy=0;entryX=0;entryY=0.5;entryDx=0;entryDy=0;" edge="1" parent="1" source="KQwhFQvOAtlfq9HruIm9-45" target="KQwhFQvOAtlfq9HruIm9-49">
          <mxGeometry width="50" height="50" relative="1" as="geometry">
            <mxPoint x="1760" y="795" as="sourcePoint" />
            <mxPoint x="1810" y="745" as="targetPoint" />
          </mxGeometry>
        </mxCell>
        <mxCell id="KQwhFQvOAtlfq9HruIm9-51" value="date_issued" style="ellipse;whiteSpace=wrap;html=1;" vertex="1" parent="1">
          <mxGeometry x="1785" y="1025" width="95" height="40" as="geometry" />
        </mxCell>
        <mxCell id="KQwhFQvOAtlfq9HruIm9-52" value="" style="endArrow=none;html=1;rounded=0;entryX=0;entryY=0.5;entryDx=0;entryDy=0;exitX=1;exitY=0.5;exitDx=0;exitDy=0;" edge="1" parent="1" source="KQwhFQvOAtlfq9HruIm9-45" target="KQwhFQvOAtlfq9HruIm9-51">
          <mxGeometry width="50" height="50" relative="1" as="geometry">
            <mxPoint x="1630" y="855" as="sourcePoint" />
            <mxPoint x="1680" y="805" as="targetPoint" />
          </mxGeometry>
        </mxCell>
        <mxCell id="KQwhFQvOAtlfq9HruIm9-53" value="academy_name" style="ellipse;whiteSpace=wrap;html=1;" vertex="1" parent="1">
          <mxGeometry x="1785" y="1085" width="95" height="40" as="geometry" />
        </mxCell>
        <mxCell id="KQwhFQvOAtlfq9HruIm9-54" value="" style="endArrow=none;html=1;rounded=0;entryX=0;entryY=0.5;entryDx=0;entryDy=0;exitX=1;exitY=0.75;exitDx=0;exitDy=0;" edge="1" parent="1" source="KQwhFQvOAtlfq9HruIm9-45" target="KQwhFQvOAtlfq9HruIm9-53">
          <mxGeometry width="50" height="50" relative="1" as="geometry">
            <mxPoint x="1640" y="855" as="sourcePoint" />
            <mxPoint x="1690" y="805" as="targetPoint" />
          </mxGeometry>
        </mxCell>
        <mxCell id="KQwhFQvOAtlfq9HruIm9-128" style="edgeStyle=none;shape=connector;rounded=0;orthogonalLoop=1;jettySize=auto;html=1;exitX=0.5;exitY=0;exitDx=0;exitDy=0;entryX=0.75;entryY=1;entryDx=0;entryDy=0;strokeColor=default;align=center;verticalAlign=middle;fontFamily=Helvetica;fontSize=11;fontColor=default;labelBackgroundColor=default;endArrow=none;" edge="1" parent="1" source="KQwhFQvOAtlfq9HruIm9-55" target="KQwhFQvOAtlfq9HruIm9-45">
          <mxGeometry relative="1" as="geometry" />
        </mxCell>
        <mxCell id="KQwhFQvOAtlfq9HruIm9-55" value="grade" style="ellipse;whiteSpace=wrap;html=1;" vertex="1" parent="1">
          <mxGeometry x="1685" y="1135" width="75" height="30" as="geometry" />
        </mxCell>
        <mxCell id="KQwhFQvOAtlfq9HruIm9-58" value="Product" style="rounded=0;whiteSpace=wrap;html=1;" vertex="1" parent="1">
          <mxGeometry x="2230" y="845" width="110" height="50" as="geometry" />
        </mxCell>
        <mxCell id="KQwhFQvOAtlfq9HruIm9-59" value="Sells" style="rhombus;whiteSpace=wrap;html=1;" vertex="1" parent="1">
          <mxGeometry x="2050" y="850" width="90" height="40" as="geometry" />
        </mxCell>
        <mxCell id="KQwhFQvOAtlfq9HruIm9-60" value="" style="endArrow=none;html=1;rounded=0;exitX=1;exitY=0.5;exitDx=0;exitDy=0;entryX=0;entryY=0.5;entryDx=0;entryDy=0;" edge="1" parent="1" source="KQwhFQvOAtlfq9HruIm9-33" target="KQwhFQvOAtlfq9HruIm9-59">
          <mxGeometry width="50" height="50" relative="1" as="geometry">
            <mxPoint x="1990" y="870" as="sourcePoint" />
            <mxPoint x="2040" y="820" as="targetPoint" />
          </mxGeometry>
        </mxCell>
        <mxCell id="KQwhFQvOAtlfq9HruIm9-61" value="" style="endArrow=none;html=1;rounded=0;exitX=0;exitY=0.5;exitDx=0;exitDy=0;entryX=1;entryY=0.5;entryDx=0;entryDy=0;" edge="1" parent="1" source="KQwhFQvOAtlfq9HruIm9-58" target="KQwhFQvOAtlfq9HruIm9-59">
          <mxGeometry width="50" height="50" relative="1" as="geometry">
            <mxPoint x="1980" y="870" as="sourcePoint" />
            <mxPoint x="2030" y="820" as="targetPoint" />
          </mxGeometry>
        </mxCell>
        <mxCell id="KQwhFQvOAtlfq9HruIm9-62" value="product_ID" style="ellipse;whiteSpace=wrap;html=1;" vertex="1" parent="1">
          <mxGeometry x="2200" y="710" width="70" height="35" as="geometry" />
        </mxCell>
        <mxCell id="KQwhFQvOAtlfq9HruIm9-63" value="price" style="ellipse;whiteSpace=wrap;html=1;" vertex="1" parent="1">
          <mxGeometry x="2300" y="710" width="70" height="35" as="geometry" />
        </mxCell>
        <mxCell id="KQwhFQvOAtlfq9HruIm9-64" value="" style="endArrow=none;html=1;rounded=0;entryX=0.5;entryY=1;entryDx=0;entryDy=0;exitX=0.25;exitY=0;exitDx=0;exitDy=0;" edge="1" parent="1" source="KQwhFQvOAtlfq9HruIm9-58" target="KQwhFQvOAtlfq9HruIm9-62">
          <mxGeometry width="50" height="50" relative="1" as="geometry">
            <mxPoint x="2100" y="820" as="sourcePoint" />
            <mxPoint x="2150" y="770" as="targetPoint" />
          </mxGeometry>
        </mxCell>
        <mxCell id="KQwhFQvOAtlfq9HruIm9-65" value="" style="endArrow=none;html=1;rounded=0;entryX=0.5;entryY=1;entryDx=0;entryDy=0;exitX=0.75;exitY=0;exitDx=0;exitDy=0;" edge="1" parent="1" source="KQwhFQvOAtlfq9HruIm9-58" target="KQwhFQvOAtlfq9HruIm9-63">
          <mxGeometry width="50" height="50" relative="1" as="geometry">
            <mxPoint x="2100" y="820" as="sourcePoint" />
            <mxPoint x="2150" y="770" as="targetPoint" />
          </mxGeometry>
        </mxCell>
        <mxCell id="KQwhFQvOAtlfq9HruIm9-66" value="d" style="ellipse;whiteSpace=wrap;html=1;aspect=fixed;" vertex="1" parent="1">
          <mxGeometry x="2275" y="970" width="25" height="25" as="geometry" />
        </mxCell>
        <mxCell id="KQwhFQvOAtlfq9HruIm9-67" value="" style="endArrow=none;html=1;rounded=0;" edge="1" parent="1">
          <mxGeometry width="50" height="50" relative="1" as="geometry">
            <mxPoint x="2220" y="1020" as="sourcePoint" />
            <mxPoint x="2240" y="1040" as="targetPoint" />
            <Array as="points">
              <mxPoint x="2220" y="1040" />
            </Array>
          </mxGeometry>
        </mxCell>
        <mxCell id="KQwhFQvOAtlfq9HruIm9-68" value="" style="endArrow=none;html=1;rounded=0;" edge="1" parent="1">
          <mxGeometry width="50" height="50" relative="1" as="geometry">
            <mxPoint x="2340" y="1010" as="sourcePoint" />
            <mxPoint x="2310" y="1030" as="targetPoint" />
            <Array as="points">
              <mxPoint x="2330" y="1030" />
            </Array>
          </mxGeometry>
        </mxCell>
        <mxCell id="KQwhFQvOAtlfq9HruIm9-69" value="" style="endArrow=none;html=1;rounded=0;entryX=0.5;entryY=1;entryDx=0;entryDy=0;exitX=0.5;exitY=0;exitDx=0;exitDy=0;" edge="1" parent="1" source="KQwhFQvOAtlfq9HruIm9-66" target="KQwhFQvOAtlfq9HruIm9-58">
          <mxGeometry width="50" height="50" relative="1" as="geometry">
            <mxPoint x="2170" y="1060" as="sourcePoint" />
            <mxPoint x="2220" y="1010" as="targetPoint" />
          </mxGeometry>
        </mxCell>
        <mxCell id="KQwhFQvOAtlfq9HruIm9-74" value="t" style="edgeLabel;html=1;align=center;verticalAlign=middle;resizable=0;points=[];" vertex="1" connectable="0" parent="KQwhFQvOAtlfq9HruIm9-69">
          <mxGeometry x="0.6719" relative="1" as="geometry">
            <mxPoint as="offset" />
          </mxGeometry>
        </mxCell>
        <mxCell id="KQwhFQvOAtlfq9HruIm9-70" value="Package" style="rounded=0;whiteSpace=wrap;html=1;" vertex="1" parent="1">
          <mxGeometry x="2100" y="1090" width="120" height="60" as="geometry" />
        </mxCell>
        <mxCell id="KQwhFQvOAtlfq9HruIm9-85" style="edgeStyle=none;shape=connector;rounded=0;orthogonalLoop=1;jettySize=auto;html=1;exitX=1;exitY=0.25;exitDx=0;exitDy=0;entryX=0;entryY=0.5;entryDx=0;entryDy=0;strokeColor=default;align=center;verticalAlign=middle;fontFamily=Helvetica;fontSize=11;fontColor=default;labelBackgroundColor=default;endArrow=none;" edge="1" parent="1" source="KQwhFQvOAtlfq9HruIm9-71" target="KQwhFQvOAtlfq9HruIm9-79">
          <mxGeometry relative="1" as="geometry" />
        </mxCell>
        <mxCell id="KQwhFQvOAtlfq9HruIm9-86" style="edgeStyle=none;shape=connector;rounded=0;orthogonalLoop=1;jettySize=auto;html=1;exitX=1;exitY=0.5;exitDx=0;exitDy=0;strokeColor=default;align=center;verticalAlign=middle;fontFamily=Helvetica;fontSize=11;fontColor=default;labelBackgroundColor=default;endArrow=none;" edge="1" parent="1" source="KQwhFQvOAtlfq9HruIm9-71" target="KQwhFQvOAtlfq9HruIm9-80">
          <mxGeometry relative="1" as="geometry" />
        </mxCell>
        <mxCell id="KQwhFQvOAtlfq9HruIm9-87" style="edgeStyle=none;shape=connector;rounded=0;orthogonalLoop=1;jettySize=auto;html=1;exitX=1;exitY=0.75;exitDx=0;exitDy=0;strokeColor=default;align=center;verticalAlign=middle;fontFamily=Helvetica;fontSize=11;fontColor=default;labelBackgroundColor=default;endArrow=none;" edge="1" parent="1" source="KQwhFQvOAtlfq9HruIm9-71" target="KQwhFQvOAtlfq9HruIm9-81">
          <mxGeometry relative="1" as="geometry" />
        </mxCell>
        <mxCell id="KQwhFQvOAtlfq9HruIm9-88" style="edgeStyle=none;shape=connector;rounded=0;orthogonalLoop=1;jettySize=auto;html=1;exitX=1;exitY=1;exitDx=0;exitDy=0;entryX=0;entryY=0.5;entryDx=0;entryDy=0;strokeColor=default;align=center;verticalAlign=middle;fontFamily=Helvetica;fontSize=11;fontColor=default;labelBackgroundColor=default;endArrow=none;" edge="1" parent="1" source="KQwhFQvOAtlfq9HruIm9-71" target="KQwhFQvOAtlfq9HruIm9-82">
          <mxGeometry relative="1" as="geometry" />
        </mxCell>
        <mxCell id="KQwhFQvOAtlfq9HruIm9-71" value="Destination" style="rounded=0;whiteSpace=wrap;html=1;" vertex="1" parent="1">
          <mxGeometry x="2330" y="1090" width="120" height="60" as="geometry" />
        </mxCell>
        <mxCell id="KQwhFQvOAtlfq9HruIm9-72" value="" style="endArrow=none;html=1;rounded=0;entryX=0;entryY=1;entryDx=0;entryDy=0;exitX=0.5;exitY=0;exitDx=0;exitDy=0;" edge="1" parent="1" source="KQwhFQvOAtlfq9HruIm9-70" target="KQwhFQvOAtlfq9HruIm9-66">
          <mxGeometry width="50" height="50" relative="1" as="geometry">
            <mxPoint x="2170" y="1060" as="sourcePoint" />
            <mxPoint x="2220" y="1010" as="targetPoint" />
          </mxGeometry>
        </mxCell>
        <mxCell id="KQwhFQvOAtlfq9HruIm9-73" value="" style="endArrow=none;html=1;rounded=0;entryX=1;entryY=1;entryDx=0;entryDy=0;exitX=0.385;exitY=-0.025;exitDx=0;exitDy=0;exitPerimeter=0;" edge="1" parent="1" source="KQwhFQvOAtlfq9HruIm9-71" target="KQwhFQvOAtlfq9HruIm9-66">
          <mxGeometry width="50" height="50" relative="1" as="geometry">
            <mxPoint x="2170" y="1060" as="sourcePoint" />
            <mxPoint x="2220" y="1010" as="targetPoint" />
          </mxGeometry>
        </mxCell>
        <mxCell id="KQwhFQvOAtlfq9HruIm9-75" value="Contain" style="rhombus;whiteSpace=wrap;html=1;" vertex="1" parent="1">
          <mxGeometry x="2245" y="1180" width="80" height="80" as="geometry" />
        </mxCell>
        <mxCell id="KQwhFQvOAtlfq9HruIm9-76" value="" style="endArrow=none;html=1;rounded=0;exitX=1;exitY=1;exitDx=0;exitDy=0;entryX=0;entryY=0;entryDx=0;entryDy=0;" edge="1" parent="1" source="KQwhFQvOAtlfq9HruIm9-70" target="KQwhFQvOAtlfq9HruIm9-75">
          <mxGeometry width="50" height="50" relative="1" as="geometry">
            <mxPoint x="2260" y="1090" as="sourcePoint" />
            <mxPoint x="2310" y="1040" as="targetPoint" />
          </mxGeometry>
        </mxCell>
        <mxCell id="KQwhFQvOAtlfq9HruIm9-97" value="0..1" style="edgeLabel;html=1;align=center;verticalAlign=middle;resizable=0;points=[];fontFamily=Helvetica;fontSize=11;fontColor=default;labelBackgroundColor=default;" vertex="1" connectable="0" parent="KQwhFQvOAtlfq9HruIm9-76">
          <mxGeometry x="-0.3703" y="1" relative="1" as="geometry">
            <mxPoint as="offset" />
          </mxGeometry>
        </mxCell>
        <mxCell id="KQwhFQvOAtlfq9HruIm9-77" value="" style="endArrow=none;html=1;rounded=0;exitX=1;exitY=0;exitDx=0;exitDy=0;entryX=0.25;entryY=1;entryDx=0;entryDy=0;" edge="1" parent="1" source="KQwhFQvOAtlfq9HruIm9-75" target="KQwhFQvOAtlfq9HruIm9-71">
          <mxGeometry width="50" height="50" relative="1" as="geometry">
            <mxPoint x="2260" y="1090" as="sourcePoint" />
            <mxPoint x="2310" y="1040" as="targetPoint" />
          </mxGeometry>
        </mxCell>
        <mxCell id="KQwhFQvOAtlfq9HruIm9-98" value="1..n" style="edgeLabel;html=1;align=center;verticalAlign=middle;resizable=0;points=[];fontFamily=Helvetica;fontSize=11;fontColor=default;labelBackgroundColor=default;" vertex="1" connectable="0" parent="KQwhFQvOAtlfq9HruIm9-77">
          <mxGeometry x="0.4396" y="2" relative="1" as="geometry">
            <mxPoint as="offset" />
          </mxGeometry>
        </mxCell>
        <mxCell id="KQwhFQvOAtlfq9HruIm9-78" value="destination_name" style="ellipse;whiteSpace=wrap;html=1;" vertex="1" parent="1">
          <mxGeometry x="2520" y="1012.5" width="100" height="45" as="geometry" />
        </mxCell>
        <mxCell id="KQwhFQvOAtlfq9HruIm9-79" value="track_name" style="ellipse;whiteSpace=wrap;html=1;" vertex="1" parent="1">
          <mxGeometry x="2520" y="1060" width="100" height="45" as="geometry" />
        </mxCell>
        <mxCell id="KQwhFQvOAtlfq9HruIm9-80" value="distance" style="ellipse;whiteSpace=wrap;html=1;" vertex="1" parent="1">
          <mxGeometry x="2520" y="1105" width="100" height="45" as="geometry" />
        </mxCell>
        <mxCell id="KQwhFQvOAtlfq9HruIm9-81" value="elevation" style="ellipse;whiteSpace=wrap;html=1;" vertex="1" parent="1">
          <mxGeometry x="2520" y="1150" width="100" height="45" as="geometry" />
        </mxCell>
        <mxCell id="KQwhFQvOAtlfq9HruIm9-82" value="difficulty" style="ellipse;whiteSpace=wrap;html=1;" vertex="1" parent="1">
          <mxGeometry x="2520" y="1197.5" width="100" height="45" as="geometry" />
        </mxCell>
        <mxCell id="KQwhFQvOAtlfq9HruIm9-84" value="" style="endArrow=none;html=1;rounded=0;exitX=1;exitY=0;exitDx=0;exitDy=0;entryX=0;entryY=0.5;entryDx=0;entryDy=0;" edge="1" parent="1" source="KQwhFQvOAtlfq9HruIm9-71" target="KQwhFQvOAtlfq9HruIm9-78">
          <mxGeometry width="50" height="50" relative="1" as="geometry">
            <mxPoint x="2460" y="1090" as="sourcePoint" />
            <mxPoint x="2510" y="1040" as="targetPoint" />
          </mxGeometry>
        </mxCell>
        <mxCell id="KQwhFQvOAtlfq9HruIm9-93" style="edgeStyle=none;shape=connector;rounded=0;orthogonalLoop=1;jettySize=auto;html=1;exitX=1;exitY=0.5;exitDx=0;exitDy=0;strokeColor=default;align=center;verticalAlign=middle;fontFamily=Helvetica;fontSize=11;fontColor=default;labelBackgroundColor=default;endArrow=none;" edge="1" parent="1" source="KQwhFQvOAtlfq9HruIm9-89" target="KQwhFQvOAtlfq9HruIm9-70">
          <mxGeometry relative="1" as="geometry" />
        </mxCell>
        <mxCell id="KQwhFQvOAtlfq9HruIm9-89" value="package_name" style="ellipse;whiteSpace=wrap;html=1;fontFamily=Helvetica;fontSize=11;fontColor=default;labelBackgroundColor=default;" vertex="1" parent="1">
          <mxGeometry x="1970" y="1000" width="100" height="50" as="geometry" />
        </mxCell>
        <mxCell id="KQwhFQvOAtlfq9HruIm9-94" style="edgeStyle=none;shape=connector;rounded=0;orthogonalLoop=1;jettySize=auto;html=1;exitX=1;exitY=0.5;exitDx=0;exitDy=0;entryX=0;entryY=0.25;entryDx=0;entryDy=0;strokeColor=default;align=center;verticalAlign=middle;fontFamily=Helvetica;fontSize=11;fontColor=default;labelBackgroundColor=default;endArrow=none;" edge="1" parent="1" source="KQwhFQvOAtlfq9HruIm9-90" target="KQwhFQvOAtlfq9HruIm9-70">
          <mxGeometry relative="1" as="geometry" />
        </mxCell>
        <mxCell id="KQwhFQvOAtlfq9HruIm9-90" value="difficulty" style="ellipse;whiteSpace=wrap;html=1;fontFamily=Helvetica;fontSize=11;fontColor=default;labelBackgroundColor=default;" vertex="1" parent="1">
          <mxGeometry x="1970" y="1057.5" width="100" height="50" as="geometry" />
        </mxCell>
        <mxCell id="KQwhFQvOAtlfq9HruIm9-95" style="edgeStyle=none;shape=connector;rounded=0;orthogonalLoop=1;jettySize=auto;html=1;exitX=1;exitY=0.5;exitDx=0;exitDy=0;entryX=0;entryY=0.75;entryDx=0;entryDy=0;strokeColor=default;align=center;verticalAlign=middle;fontFamily=Helvetica;fontSize=11;fontColor=default;labelBackgroundColor=default;endArrow=none;" edge="1" parent="1" source="KQwhFQvOAtlfq9HruIm9-91" target="KQwhFQvOAtlfq9HruIm9-70">
          <mxGeometry relative="1" as="geometry" />
        </mxCell>
        <mxCell id="KQwhFQvOAtlfq9HruIm9-91" value="package_ID" style="ellipse;whiteSpace=wrap;html=1;fontFamily=Helvetica;fontSize=11;fontColor=default;labelBackgroundColor=default;" vertex="1" parent="1">
          <mxGeometry x="1970" y="1115" width="100" height="50" as="geometry" />
        </mxCell>
        <mxCell id="KQwhFQvOAtlfq9HruIm9-92" value="package_price" style="ellipse;whiteSpace=wrap;html=1;fontFamily=Helvetica;fontSize=11;fontColor=default;labelBackgroundColor=default;" vertex="1" parent="1">
          <mxGeometry x="1970" y="1180" width="100" height="50" as="geometry" />
        </mxCell>
        <mxCell id="KQwhFQvOAtlfq9HruIm9-96" style="edgeStyle=none;shape=connector;rounded=0;orthogonalLoop=1;jettySize=auto;html=1;exitX=1;exitY=0.5;exitDx=0;exitDy=0;entryX=0.125;entryY=0.975;entryDx=0;entryDy=0;entryPerimeter=0;strokeColor=default;align=center;verticalAlign=middle;fontFamily=Helvetica;fontSize=11;fontColor=default;labelBackgroundColor=default;endArrow=none;" edge="1" parent="1" source="KQwhFQvOAtlfq9HruIm9-92" target="KQwhFQvOAtlfq9HruIm9-70">
          <mxGeometry relative="1" as="geometry" />
        </mxCell>
        <mxCell id="KQwhFQvOAtlfq9HruIm9-114" style="edgeStyle=none;shape=connector;rounded=0;orthogonalLoop=1;jettySize=auto;html=1;exitX=0.75;exitY=1;exitDx=0;exitDy=0;strokeColor=default;align=center;verticalAlign=middle;fontFamily=Helvetica;fontSize=11;fontColor=default;labelBackgroundColor=default;endArrow=none;" edge="1" parent="1" source="KQwhFQvOAtlfq9HruIm9-99" target="KQwhFQvOAtlfq9HruIm9-112">
          <mxGeometry relative="1" as="geometry" />
        </mxCell>
        <mxCell id="KQwhFQvOAtlfq9HruIm9-127" value="0..n" style="edgeLabel;html=1;align=center;verticalAlign=middle;resizable=0;points=[];fontFamily=Helvetica;fontSize=11;fontColor=default;labelBackgroundColor=default;" vertex="1" connectable="0" parent="KQwhFQvOAtlfq9HruIm9-114">
          <mxGeometry x="-0.638" y="2" relative="1" as="geometry">
            <mxPoint y="1" as="offset" />
          </mxGeometry>
        </mxCell>
        <mxCell id="KQwhFQvOAtlfq9HruIm9-99" value="Club" style="rounded=0;whiteSpace=wrap;html=1;fontFamily=Helvetica;fontSize=11;fontColor=default;labelBackgroundColor=default;" vertex="1" parent="1">
          <mxGeometry x="665" y="850" width="105" height="40" as="geometry" />
        </mxCell>
        <mxCell id="KQwhFQvOAtlfq9HruIm9-102" style="edgeStyle=none;shape=connector;rounded=0;orthogonalLoop=1;jettySize=auto;html=1;exitX=0;exitY=0.5;exitDx=0;exitDy=0;entryX=1;entryY=0;entryDx=0;entryDy=0;strokeColor=default;align=center;verticalAlign=middle;fontFamily=Helvetica;fontSize=11;fontColor=default;labelBackgroundColor=default;endArrow=none;" edge="1" parent="1" source="KQwhFQvOAtlfq9HruIm9-100" target="KQwhFQvOAtlfq9HruIm9-99">
          <mxGeometry relative="1" as="geometry" />
        </mxCell>
        <mxCell id="KQwhFQvOAtlfq9HruIm9-111" value="0..n" style="edgeLabel;html=1;align=center;verticalAlign=middle;resizable=0;points=[];fontFamily=Helvetica;fontSize=11;fontColor=default;labelBackgroundColor=default;" vertex="1" connectable="0" parent="KQwhFQvOAtlfq9HruIm9-102">
          <mxGeometry x="0.4729" y="1" relative="1" as="geometry">
            <mxPoint y="1" as="offset" />
          </mxGeometry>
        </mxCell>
        <mxCell id="KQwhFQvOAtlfq9HruIm9-100" value="has" style="rhombus;whiteSpace=wrap;html=1;" vertex="1" parent="1">
          <mxGeometry x="800" y="765" width="90" height="40" as="geometry" />
        </mxCell>
        <mxCell id="KQwhFQvOAtlfq9HruIm9-101" style="edgeStyle=none;shape=connector;rounded=0;orthogonalLoop=1;jettySize=auto;html=1;entryX=1;entryY=0.5;entryDx=0;entryDy=0;strokeColor=default;align=center;verticalAlign=middle;fontFamily=Helvetica;fontSize=11;fontColor=default;labelBackgroundColor=default;endArrow=none;" edge="1" parent="1" target="KQwhFQvOAtlfq9HruIm9-100">
          <mxGeometry relative="1" as="geometry">
            <mxPoint x="1019.9999999999999" y="785" as="sourcePoint" />
          </mxGeometry>
        </mxCell>
        <mxCell id="KQwhFQvOAtlfq9HruIm9-110" value="1..n" style="edgeLabel;html=1;align=center;verticalAlign=middle;resizable=0;points=[];fontFamily=Helvetica;fontSize=11;fontColor=default;labelBackgroundColor=default;" vertex="1" connectable="0" parent="KQwhFQvOAtlfq9HruIm9-101">
          <mxGeometry x="-0.3606" y="1" relative="1" as="geometry">
            <mxPoint as="offset" />
          </mxGeometry>
        </mxCell>
        <mxCell id="KQwhFQvOAtlfq9HruIm9-106" style="edgeStyle=none;shape=connector;rounded=0;orthogonalLoop=1;jettySize=auto;html=1;exitX=1;exitY=0.5;exitDx=0;exitDy=0;entryX=0;entryY=0;entryDx=0;entryDy=0;strokeColor=default;align=center;verticalAlign=middle;fontFamily=Helvetica;fontSize=11;fontColor=default;labelBackgroundColor=default;endArrow=none;" edge="1" parent="1" source="KQwhFQvOAtlfq9HruIm9-103" target="KQwhFQvOAtlfq9HruIm9-99">
          <mxGeometry relative="1" as="geometry" />
        </mxCell>
        <mxCell id="KQwhFQvOAtlfq9HruIm9-103" value="club_ID" style="ellipse;whiteSpace=wrap;html=1;fontFamily=Helvetica;fontSize=11;fontColor=default;labelBackgroundColor=default;" vertex="1" parent="1">
          <mxGeometry x="510" y="780" width="110" height="50" as="geometry" />
        </mxCell>
        <mxCell id="KQwhFQvOAtlfq9HruIm9-107" style="edgeStyle=none;shape=connector;rounded=0;orthogonalLoop=1;jettySize=auto;html=1;exitX=1;exitY=0.5;exitDx=0;exitDy=0;entryX=0;entryY=0.5;entryDx=0;entryDy=0;strokeColor=default;align=center;verticalAlign=middle;fontFamily=Helvetica;fontSize=11;fontColor=default;labelBackgroundColor=default;endArrow=none;" edge="1" parent="1" source="KQwhFQvOAtlfq9HruIm9-104" target="KQwhFQvOAtlfq9HruIm9-99">
          <mxGeometry relative="1" as="geometry" />
        </mxCell>
        <mxCell id="KQwhFQvOAtlfq9HruIm9-104" value="club_name" style="ellipse;whiteSpace=wrap;html=1;fontFamily=Helvetica;fontSize=11;fontColor=default;labelBackgroundColor=default;" vertex="1" parent="1">
          <mxGeometry x="510" y="840" width="110" height="50" as="geometry" />
        </mxCell>
        <mxCell id="KQwhFQvOAtlfq9HruIm9-108" style="edgeStyle=none;shape=connector;rounded=0;orthogonalLoop=1;jettySize=auto;html=1;exitX=1;exitY=0.5;exitDx=0;exitDy=0;entryX=0;entryY=1;entryDx=0;entryDy=0;strokeColor=default;align=center;verticalAlign=middle;fontFamily=Helvetica;fontSize=11;fontColor=default;labelBackgroundColor=default;endArrow=none;" edge="1" parent="1" source="KQwhFQvOAtlfq9HruIm9-105" target="KQwhFQvOAtlfq9HruIm9-99">
          <mxGeometry relative="1" as="geometry" />
        </mxCell>
        <mxCell id="KQwhFQvOAtlfq9HruIm9-105" value="date_established" style="ellipse;whiteSpace=wrap;html=1;fontFamily=Helvetica;fontSize=11;fontColor=default;labelBackgroundColor=default;" vertex="1" parent="1">
          <mxGeometry x="510" y="900" width="110" height="50" as="geometry" />
        </mxCell>
        <mxCell id="KQwhFQvOAtlfq9HruIm9-116" style="edgeStyle=none;shape=connector;rounded=0;orthogonalLoop=1;jettySize=auto;html=1;exitX=0.5;exitY=1;exitDx=0;exitDy=0;strokeColor=default;align=center;verticalAlign=middle;fontFamily=Helvetica;fontSize=11;fontColor=default;labelBackgroundColor=default;endArrow=none;" edge="1" parent="1" source="KQwhFQvOAtlfq9HruIm9-112" target="KQwhFQvOAtlfq9HruIm9-115">
          <mxGeometry relative="1" as="geometry" />
        </mxCell>
        <mxCell id="KQwhFQvOAtlfq9HruIm9-126" value="0.1" style="edgeLabel;html=1;align=center;verticalAlign=middle;resizable=0;points=[];fontFamily=Helvetica;fontSize=11;fontColor=default;labelBackgroundColor=default;" vertex="1" connectable="0" parent="KQwhFQvOAtlfq9HruIm9-116">
          <mxGeometry x="0.4833" relative="1" as="geometry">
            <mxPoint as="offset" />
          </mxGeometry>
        </mxCell>
        <mxCell id="KQwhFQvOAtlfq9HruIm9-112" value="represent" style="rhombus;whiteSpace=wrap;html=1;fontFamily=Helvetica;fontSize=11;fontColor=default;labelBackgroundColor=default;" vertex="1" parent="1">
          <mxGeometry x="805" y="968" width="135" height="80" as="geometry" />
        </mxCell>
        <mxCell id="KQwhFQvOAtlfq9HruIm9-118" style="edgeStyle=none;shape=connector;rounded=0;orthogonalLoop=1;jettySize=auto;html=1;exitX=1;exitY=0;exitDx=0;exitDy=0;entryX=0;entryY=0.5;entryDx=0;entryDy=0;strokeColor=default;align=center;verticalAlign=middle;fontFamily=Helvetica;fontSize=11;fontColor=default;labelBackgroundColor=default;endArrow=none;" edge="1" parent="1" source="KQwhFQvOAtlfq9HruIm9-115" target="KQwhFQvOAtlfq9HruIm9-117">
          <mxGeometry relative="1" as="geometry" />
        </mxCell>
        <mxCell id="KQwhFQvOAtlfq9HruIm9-120" style="edgeStyle=none;shape=connector;rounded=0;orthogonalLoop=1;jettySize=auto;html=1;exitX=1;exitY=0.5;exitDx=0;exitDy=0;entryX=0;entryY=0.5;entryDx=0;entryDy=0;strokeColor=default;align=center;verticalAlign=middle;fontFamily=Helvetica;fontSize=11;fontColor=default;labelBackgroundColor=default;endArrow=none;" edge="1" parent="1" source="KQwhFQvOAtlfq9HruIm9-115" target="KQwhFQvOAtlfq9HruIm9-119">
          <mxGeometry relative="1" as="geometry" />
        </mxCell>
        <mxCell id="KQwhFQvOAtlfq9HruIm9-115" value="Brand" style="rounded=0;whiteSpace=wrap;html=1;fontFamily=Helvetica;fontSize=11;fontColor=default;labelBackgroundColor=default;" vertex="1" parent="1">
          <mxGeometry x="650" y="1147.5" width="120" height="60" as="geometry" />
        </mxCell>
        <mxCell id="KQwhFQvOAtlfq9HruIm9-117" value="brand_ID" style="ellipse;whiteSpace=wrap;html=1;fontFamily=Helvetica;fontSize=11;fontColor=default;labelBackgroundColor=default;" vertex="1" parent="1">
          <mxGeometry x="837.4999999999999" y="1107.5" width="110" height="47" as="geometry" />
        </mxCell>
        <mxCell id="KQwhFQvOAtlfq9HruIm9-119" value="brand_name" style="ellipse;whiteSpace=wrap;html=1;fontFamily=Helvetica;fontSize=11;fontColor=default;labelBackgroundColor=default;" vertex="1" parent="1">
          <mxGeometry x="847.4999999999999" y="1160.5" width="100" height="47" as="geometry" />
        </mxCell>
        <mxCell id="KQwhFQvOAtlfq9HruIm9-121" value="representative_ID" style="ellipse;whiteSpace=wrap;html=1;fontFamily=Helvetica;fontSize=11;fontColor=default;labelBackgroundColor=default;" vertex="1" parent="1">
          <mxGeometry x="630" y="973" width="120" height="42" as="geometry" />
        </mxCell>
        <mxCell id="KQwhFQvOAtlfq9HruIm9-122" value="payment" style="ellipse;whiteSpace=wrap;html=1;fontFamily=Helvetica;fontSize=11;fontColor=default;labelBackgroundColor=default;" vertex="1" parent="1">
          <mxGeometry x="630" y="1024" width="120" height="42" as="geometry" />
        </mxCell>
        <mxCell id="KQwhFQvOAtlfq9HruIm9-123" style="edgeStyle=none;shape=connector;rounded=0;orthogonalLoop=1;jettySize=auto;html=1;exitX=1;exitY=0.5;exitDx=0;exitDy=0;strokeColor=default;align=center;verticalAlign=middle;fontFamily=Helvetica;fontSize=11;fontColor=default;labelBackgroundColor=default;endArrow=none;" edge="1" parent="1" source="KQwhFQvOAtlfq9HruIm9-121" target="KQwhFQvOAtlfq9HruIm9-112">
          <mxGeometry relative="1" as="geometry" />
        </mxCell>
        <mxCell id="KQwhFQvOAtlfq9HruIm9-124" style="edgeStyle=none;shape=connector;rounded=0;orthogonalLoop=1;jettySize=auto;html=1;exitX=1;exitY=0.5;exitDx=0;exitDy=0;strokeColor=default;align=center;verticalAlign=middle;fontFamily=Helvetica;fontSize=11;fontColor=default;labelBackgroundColor=default;endArrow=none;" edge="1" parent="1" source="KQwhFQvOAtlfq9HruIm9-122" target="KQwhFQvOAtlfq9HruIm9-112">
          <mxGeometry relative="1" as="geometry" />
        </mxCell>
        <mxCell id="KQwhFQvOAtlfq9HruIm9-138" style="edgeStyle=none;shape=connector;rounded=0;orthogonalLoop=1;jettySize=auto;html=1;exitX=1;exitY=0;exitDx=0;exitDy=0;entryX=0;entryY=0.5;entryDx=0;entryDy=0;strokeColor=default;align=center;verticalAlign=middle;fontFamily=Helvetica;fontSize=11;fontColor=default;labelBackgroundColor=default;endArrow=none;" edge="1" parent="1" source="KQwhFQvOAtlfq9HruIm9-129" target="KQwhFQvOAtlfq9HruIm9-137">
          <mxGeometry relative="1" as="geometry" />
        </mxCell>
        <mxCell id="KQwhFQvOAtlfq9HruIm9-141" value="0..n" style="edgeLabel;html=1;align=center;verticalAlign=middle;resizable=0;points=[];fontFamily=Helvetica;fontSize=11;fontColor=default;labelBackgroundColor=default;" vertex="1" connectable="0" parent="KQwhFQvOAtlfq9HruIm9-138">
          <mxGeometry x="-0.8754" relative="1" as="geometry">
            <mxPoint as="offset" />
          </mxGeometry>
        </mxCell>
        <mxCell id="KQwhFQvOAtlfq9HruIm9-129" value="Trip" style="rounded=0;whiteSpace=wrap;html=1;fontFamily=Helvetica;fontSize=11;fontColor=default;labelBackgroundColor=default;" vertex="1" parent="1">
          <mxGeometry x="1490" y="1510" width="120" height="60" as="geometry" />
        </mxCell>
        <mxCell id="KQwhFQvOAtlfq9HruIm9-131" value="participate in" style="rhombus;whiteSpace=wrap;html=1;fontFamily=Helvetica;fontSize=11;fontColor=default;labelBackgroundColor=default;" vertex="1" parent="1">
          <mxGeometry x="1230" y="1125" width="135" height="80" as="geometry" />
        </mxCell>
        <mxCell id="KQwhFQvOAtlfq9HruIm9-133" style="edgeStyle=none;shape=connector;rounded=0;orthogonalLoop=1;jettySize=auto;html=1;exitX=0;exitY=0.75;exitDx=0;exitDy=0;entryX=0.896;entryY=0.355;entryDx=0;entryDy=0;entryPerimeter=0;strokeColor=default;align=center;verticalAlign=middle;fontFamily=Helvetica;fontSize=11;fontColor=default;labelBackgroundColor=default;endArrow=none;" edge="1" parent="1" source="KQwhFQvOAtlfq9HruIm9-20" target="KQwhFQvOAtlfq9HruIm9-131">
          <mxGeometry relative="1" as="geometry" />
        </mxCell>
        <mxCell id="KQwhFQvOAtlfq9HruIm9-134" value="1..n" style="edgeLabel;html=1;align=center;verticalAlign=middle;resizable=0;points=[];fontFamily=Helvetica;fontSize=11;fontColor=default;labelBackgroundColor=default;" vertex="1" connectable="0" parent="KQwhFQvOAtlfq9HruIm9-133">
          <mxGeometry x="-0.6673" y="-3" relative="1" as="geometry">
            <mxPoint as="offset" />
          </mxGeometry>
        </mxCell>
        <mxCell id="KQwhFQvOAtlfq9HruIm9-136" style="edgeStyle=none;shape=connector;rounded=0;orthogonalLoop=1;jettySize=auto;html=1;exitX=0.5;exitY=1;exitDx=0;exitDy=0;entryX=0.5;entryY=0;entryDx=0;entryDy=0;strokeColor=default;align=center;verticalAlign=middle;fontFamily=Helvetica;fontSize=11;fontColor=default;labelBackgroundColor=default;endArrow=none;" edge="1" parent="1" source="KQwhFQvOAtlfq9HruIm9-131" target="KQwhFQvOAtlfq9HruIm9-129">
          <mxGeometry relative="1" as="geometry" />
        </mxCell>
        <mxCell id="KQwhFQvOAtlfq9HruIm9-146" value="0..1" style="edgeLabel;html=1;align=center;verticalAlign=middle;resizable=0;points=[];fontFamily=Helvetica;fontSize=11;fontColor=default;labelBackgroundColor=default;" vertex="1" connectable="0" parent="KQwhFQvOAtlfq9HruIm9-136">
          <mxGeometry x="0.8297" y="1" relative="1" as="geometry">
            <mxPoint y="-1" as="offset" />
          </mxGeometry>
        </mxCell>
        <mxCell id="KQwhFQvOAtlfq9HruIm9-143" style="edgeStyle=none;shape=connector;rounded=0;orthogonalLoop=1;jettySize=auto;html=1;exitX=1;exitY=1;exitDx=0;exitDy=0;strokeColor=default;align=center;verticalAlign=middle;fontFamily=Helvetica;fontSize=11;fontColor=default;labelBackgroundColor=default;endArrow=none;" edge="1" parent="1" source="KQwhFQvOAtlfq9HruIm9-137" target="KQwhFQvOAtlfq9HruIm9-142">
          <mxGeometry relative="1" as="geometry" />
        </mxCell>
        <mxCell id="KQwhFQvOAtlfq9HruIm9-145" style="edgeStyle=none;shape=connector;rounded=0;orthogonalLoop=1;jettySize=auto;html=1;exitX=0.5;exitY=1;exitDx=0;exitDy=0;entryX=0.5;entryY=0;entryDx=0;entryDy=0;strokeColor=default;align=center;verticalAlign=middle;fontFamily=Helvetica;fontSize=11;fontColor=default;labelBackgroundColor=default;endArrow=none;" edge="1" parent="1" source="KQwhFQvOAtlfq9HruIm9-137" target="KQwhFQvOAtlfq9HruIm9-144">
          <mxGeometry relative="1" as="geometry" />
        </mxCell>
        <mxCell id="KQwhFQvOAtlfq9HruIm9-137" value="has" style="rhombus;whiteSpace=wrap;html=1;fontFamily=Helvetica;fontSize=11;fontColor=default;labelBackgroundColor=default;" vertex="1" parent="1">
          <mxGeometry x="2180" y="1360" width="130" height="80" as="geometry" />
        </mxCell>
        <mxCell id="KQwhFQvOAtlfq9HruIm9-139" style="edgeStyle=none;shape=connector;rounded=0;orthogonalLoop=1;jettySize=auto;html=1;exitX=1;exitY=0;exitDx=0;exitDy=0;entryX=0.63;entryY=1.041;entryDx=0;entryDy=0;entryPerimeter=0;strokeColor=default;align=center;verticalAlign=middle;fontFamily=Helvetica;fontSize=11;fontColor=default;labelBackgroundColor=default;endArrow=none;" edge="1" parent="1" source="KQwhFQvOAtlfq9HruIm9-137" target="KQwhFQvOAtlfq9HruIm9-71">
          <mxGeometry relative="1" as="geometry" />
        </mxCell>
        <mxCell id="KQwhFQvOAtlfq9HruIm9-140" value="1..1" style="edgeLabel;html=1;align=center;verticalAlign=middle;resizable=0;points=[];fontFamily=Helvetica;fontSize=11;fontColor=default;labelBackgroundColor=default;" vertex="1" connectable="0" parent="KQwhFQvOAtlfq9HruIm9-139">
          <mxGeometry x="0.7685" y="2" relative="1" as="geometry">
            <mxPoint as="offset" />
          </mxGeometry>
        </mxCell>
        <mxCell id="KQwhFQvOAtlfq9HruIm9-142" value="guidance_rating" style="ellipse;whiteSpace=wrap;html=1;fontFamily=Helvetica;fontSize=11;fontColor=default;labelBackgroundColor=default;" vertex="1" parent="1">
          <mxGeometry x="2310" y="1460" width="110" height="50" as="geometry" />
        </mxCell>
        <mxCell id="KQwhFQvOAtlfq9HruIm9-144" value="timestamp" style="ellipse;whiteSpace=wrap;html=1;fontFamily=Helvetica;fontSize=11;fontColor=default;labelBackgroundColor=default;" vertex="1" parent="1">
          <mxGeometry x="2180" y="1500" width="110" height="50" as="geometry" />
        </mxCell>
      </root>
    </mxGraphModel>
  </diagram>
</mxfile>
